<svg width="40" height="40" viewBox="0 0 40 40" fill="none" xmlns="http://www.w3.org/2000/svg">
<rect x="0.5" y="0.5" width="39" height="39" rx="19.5" stroke="url(#paint0_linear_218_831)" stroke-opacity="0.5"/>
<path d="M28 19.5533C28 18.0956 27.6444 16.7533 26.9333 15.5267C26.2222 14.3 25.2533 13.3222 24.0267 12.5933C22.8 11.8644 21.4578 11.5 20 11.5C18.5422 11.5 17.2 11.8644 15.9733 12.5933C14.7467 13.3222 13.7778 14.3 13.0667 15.5267C12.3556 16.7533 12 18.0956 12 19.5533C12 20.8689 12.2933 22.0956 12.88 23.2333C13.4667 24.3711 14.2756 25.3133 15.3067 26.06C16.3378 26.8067 17.4933 27.2867 18.7733 27.5V21.9H16.6933V19.5533H18.7733V17.7933C18.7733 16.7978 19.04 16.0244 19.5733 15.4733C20.1067 14.9222 20.8356 14.6467 21.76 14.6467C22.1156 14.6467 22.5244 14.6644 22.9867 14.7L23.5733 14.8067V16.78H22.56C22.0978 16.78 21.76 16.8956 21.5467 17.1267C21.3333 17.3578 21.2267 17.6689 21.2267 18.06V19.5533H23.4667L23.0933 21.9H21.2267V27.5C22.5067 27.2867 23.6622 26.8067 24.6933 26.06C25.7244 25.3133 26.5333 24.3711 27.12 23.2333C27.7067 22.0956 28 20.8689 28 19.5533Z" fill="white"/>
<defs>
<linearGradient id="paint0_linear_218_831" x1="20" y1="0" x2="20" y2="40" gradientUnits="userSpaceOnUse">
<stop stop-color="#03C2CD"/>
<stop offset="1" stop-color="#9D5EFB"/>
</linearGradient>
</defs>
</svg>
