<svg width="40" height="40" viewBox="0 0 40 40" fill="none" xmlns="http://www.w3.org/2000/svg">
<rect x="0.5" y="0.5" width="39" height="39" rx="19.5" stroke="url(#paint0_linear_218_834)" stroke-opacity="0.5"/>
<path d="M20 11.5C18.5067 11.5 17.3956 11.5178 16.6667 11.5533C15.9378 11.5889 15.3067 11.7133 14.7733 11.9267C14.24 12.14 13.7689 12.4511 13.36 12.86C12.9511 13.2689 12.64 13.74 12.4267 14.2733C12.2133 14.8067 12.0889 15.4378 12.0533 16.1667C12.0178 16.8956 12 18.0067 12 19.5C12 20.9933 12.0178 22.1044 12.0533 22.8333C12.0889 23.5622 12.2133 24.1933 12.4267 24.7267C12.64 25.26 12.9511 25.7311 13.36 26.14C13.7689 26.5489 14.24 26.86 14.7733 27.0733C15.3067 27.2867 15.9378 27.4111 16.6667 27.4467C17.3956 27.4822 18.5067 27.5 20 27.5C21.4933 27.5 22.6044 27.4822 23.3333 27.4467C24.0622 27.4111 24.6933 27.2867 25.2267 27.0733C25.76 26.86 26.2311 26.5489 26.64 26.14C27.0489 25.7311 27.36 25.26 27.5733 24.7267C27.7867 24.1933 27.9111 23.5622 27.9467 22.8333C27.9822 22.1044 28 20.9933 28 19.5C28 18.0067 27.9822 16.8956 27.9467 16.1667C27.9111 15.4378 27.7867 14.8067 27.5733 14.2733C27.36 13.74 27.0489 13.2689 26.64 12.86C26.2311 12.4511 25.76 12.14 25.2267 11.9267C24.6933 11.7133 24.0622 11.5889 23.3333 11.5533C22.6044 11.5178 21.4933 11.5 20 11.5ZM19.3067 12.94H20C21.4933 12.94 22.5778 12.9578 23.2533 12.9933C23.8222 13.0289 24.2933 13.1178 24.6667 13.26C25.04 13.4022 25.36 13.6067 25.6267 13.8733C25.8933 14.14 26.0978 14.46 26.24 14.8333C26.3822 15.2067 26.4711 15.6778 26.5067 16.2467C26.5422 16.9222 26.56 18.0067 26.56 19.5C26.56 20.9933 26.5422 22.0778 26.5067 22.7533C26.4711 23.3222 26.3822 23.7933 26.24 24.1667C26.0978 24.54 25.8933 24.86 25.6267 25.1267C25.36 25.3933 25.04 25.5978 24.6667 25.74C24.2933 25.8822 23.8222 25.9711 23.2533 26.0067C22.5422 26.0422 21.4578 26.06 20 26.06C18.5422 26.06 17.4578 26.0422 16.7467 26.0067C16.1778 25.9711 15.7067 25.8822 15.3333 25.74C14.96 25.5978 14.64 25.3933 14.3733 25.1267C14.1067 24.86 13.9022 24.54 13.76 24.1667C13.6178 23.7933 13.5289 23.3222 13.4933 22.7533C13.4578 22.0422 13.44 20.9489 13.44 19.4733C13.44 17.9978 13.4578 16.9222 13.4933 16.2467C13.5289 15.6778 13.6178 15.2067 13.76 14.8333C13.9022 14.46 14.1067 14.14 14.3733 13.8733C14.64 13.6067 14.96 13.4022 15.3333 13.26C15.7067 13.1178 16.1956 13.0289 16.8 12.9933C17.4044 12.9578 18.24 12.94 19.3067 12.94ZM24.2667 14.2733C24.0178 14.2733 23.7956 14.3622 23.6 14.54C23.4044 14.7178 23.3067 14.94 23.3067 15.2067C23.3067 15.4733 23.4044 15.7044 23.6 15.9C23.7956 16.0956 24.0267 16.1933 24.2933 16.1933C24.56 16.1933 24.7822 16.0956 24.96 15.9C25.1378 15.7044 25.2267 15.4733 25.2267 15.2067C25.2267 14.94 25.1378 14.7178 24.96 14.54C24.7822 14.3622 24.5511 14.2733 24.2667 14.2733ZM20 15.3933C19.2533 15.3933 18.56 15.5711 17.92 15.9267C17.28 16.2822 16.7733 16.78 16.4 17.42C16.0267 18.06 15.84 18.7533 15.84 19.5C15.84 20.2467 16.0267 20.94 16.4 21.58C16.7733 22.22 17.28 22.7178 17.92 23.0733C18.56 23.4289 19.2533 23.6067 20 23.6067C20.7467 23.6067 21.4311 23.42 22.0533 23.0467C22.6756 22.6733 23.1644 22.1756 23.52 21.5533C23.8756 20.9311 24.0533 20.2467 24.0533 19.5C24.0533 18.7533 23.8756 18.0689 23.52 17.4467C23.1644 16.8244 22.6756 16.3267 22.0533 15.9533C21.4311 15.58 20.7467 15.3933 20 15.3933ZM20 16.8333C20.4622 16.8333 20.9067 16.9489 21.3333 17.18C21.76 17.4111 22.0889 17.74 22.32 18.1667C22.5511 18.5933 22.6667 19.0378 22.6667 19.5C22.6667 19.9622 22.5511 20.4067 22.32 20.8333C22.0889 21.26 21.76 21.5889 21.3333 21.82C20.9067 22.0511 20.4622 22.1667 20 22.1667C19.2533 22.1667 18.6222 21.9089 18.1067 21.3933C17.5911 20.8778 17.3333 20.2467 17.3333 19.5C17.3333 18.7533 17.5911 18.1222 18.1067 17.6067C18.6222 17.0911 19.2533 16.8333 20 16.8333Z" fill="white"/>
<defs>
<linearGradient id="paint0_linear_218_834" x1="20" y1="0" x2="20" y2="40" gradientUnits="userSpaceOnUse">
<stop stop-color="#03C2CD"/>
<stop offset="1" stop-color="#9D5EFB"/>
</linearGradient>
</defs>
</svg>
