<svg width="40" height="40" viewBox="0 0 40 40" fill="none" xmlns="http://www.w3.org/2000/svg">
<rect x="0.5" y="0.5" width="39" height="39" rx="19.5" stroke="url(#paint0_linear_218_837)" stroke-opacity="0.5"/>
<path d="M12 12.62C12 12.3356 12.1156 12.0778 12.3467 11.8467C12.5778 11.6156 12.8533 11.5 13.1733 11.5H26.8267C27.1467 11.5 27.4222 11.6156 27.6533 11.8467C27.8844 12.0778 28 12.3356 28 12.62V26.38C28 26.6644 27.8844 26.9222 27.6533 27.1533C27.4222 27.3844 27.1467 27.5 26.8267 27.5H13.1733C12.8533 27.5 12.5778 27.3844 12.3467 27.1533C12.1156 26.9222 12 26.6644 12 26.38V12.62ZM16.96 24.8867V17.6867H14.56V24.8867H16.96ZM15.7333 16.6733C16.16 16.6733 16.4978 16.5578 16.7467 16.3267C16.9956 16.0956 17.1111 15.8022 17.0933 15.4467C17.0756 15.0911 16.9511 14.7889 16.72 14.54C16.4889 14.2911 16.1689 14.1667 15.76 14.1667C15.3511 14.1667 15.0222 14.2911 14.7733 14.54C14.5244 14.7889 14.4 15.0911 14.4 15.4467C14.4 15.8022 14.5244 16.0956 14.7733 16.3267C15.0222 16.5578 15.3422 16.6733 15.7333 16.6733ZM20.64 24.8867V20.8333C20.64 20.5844 20.6756 20.3889 20.7467 20.2467C20.8178 20.0333 20.96 19.8378 21.1733 19.66C21.3867 19.4822 21.6533 19.3933 21.9733 19.3933C22.4 19.3933 22.7111 19.5356 22.9067 19.82C23.1022 20.1044 23.2 20.5133 23.2 21.0467V24.8867H25.6V20.7267C25.6 19.66 25.3422 18.8511 24.8267 18.3C24.3111 17.7489 23.6444 17.4733 22.8267 17.4733C22.2578 17.4733 21.7778 17.6156 21.3867 17.9C21.1022 18.0778 20.8533 18.3444 20.64 18.7V17.6867H18.24C18.2756 17.9711 18.2756 19.2511 18.24 21.5267V24.8867H20.64Z" fill="white"/>
<defs>
<linearGradient id="paint0_linear_218_837" x1="20" y1="0" x2="20" y2="40" gradientUnits="userSpaceOnUse">
<stop stop-color="#03C2CD"/>
<stop offset="1" stop-color="#9D5EFB"/>
</linearGradient>
</defs>
</svg>
